<?xml version="1.0" encoding="UTF-8" standalone="no"?>
<!DOCTYPE svg PUBLIC "-//W3C//DTD SVG 1.1//EN" "http://www.w3.org/Graphics/SVG/1.1/DTD/svg11.dtd">
<svg width="100%" height="100%" viewBox="0 0 33 33" version="1.1" xmlns="http://www.w3.org/2000/svg" xmlns:xlink="http://www.w3.org/1999/xlink" xml:space="preserve" xmlns:serif="http://www.serif.com/" style="fill-rule:evenodd;clip-rule:evenodd;stroke-linejoin:round;stroke-miterlimit:2;">
    <g transform="matrix(1,0,0,1,-209,-131)">
        <g id="btn-italic" transform="matrix(0.451519,0,0,0.451519,209.272924,131.773636)">
            <rect x="0" y="0" width="70.872" height="70.866" style="fill:none;"/>
            <g transform="matrix(7.325261,0,0,7.325261,-1577.806228,-1054.869054)">
                <path d="M218.715,147.306L221.833,147.306L220.801,151.771L221.92,151.771L221.545,153.377L218.428,153.377L219.459,148.912L218.34,148.912L218.715,147.306ZM220.045,145.349C220.045,145.205 220.072,145.069 220.125,144.942C220.177,144.815 220.251,144.705 220.344,144.611C220.438,144.517 220.548,144.443 220.675,144.388C220.802,144.334 220.94,144.306 221.088,144.306C221.229,144.306 221.362,144.334 221.487,144.388C221.612,144.443 221.721,144.517 221.815,144.611C221.909,144.705 221.983,144.815 222.038,144.942C222.092,145.069 222.12,145.205 222.12,145.349C222.12,145.494 222.092,145.629 222.038,145.756C221.983,145.883 221.909,145.994 221.815,146.087C221.721,146.181 221.612,146.255 221.487,146.31C221.362,146.365 221.229,146.392 221.088,146.392C220.94,146.392 220.802,146.365 220.675,146.31C220.548,146.255 220.438,146.181 220.344,146.087C220.251,145.994 220.177,145.883 220.125,145.756C220.072,145.629 220.045,145.494 220.045,145.349Z" style="fill:var(--outline);fill-rule:nonzero;"/>
            </g>
        </g>
    </g>
</svg>
