<?xml version="1.0" encoding="UTF-8" standalone="no"?>
<!DOCTYPE svg PUBLIC "-//W3C//DTD SVG 1.1//EN" "http://www.w3.org/Graphics/SVG/1.1/DTD/svg11.dtd">
<svg width="100%" height="100%" viewBox="0 0 32 32" version="1.1" xmlns="http://www.w3.org/2000/svg" xmlns:xlink="http://www.w3.org/1999/xlink" xml:space="preserve" xmlns:serif="http://www.serif.com/" style="fill-rule:evenodd;clip-rule:evenodd;stroke-linejoin:round;stroke-miterlimit:1.5;">
    <g transform="matrix(1,0,0,1,-38,0)">
        <g id="light-param-update-eachrepeat" serif:id="light/param-update-eachrepeat" transform="matrix(2.76476e-17,0.451519,-0.451556,2.76498e-17,70,0)">
            <rect x="0" y="0" width="70.872" height="70.866" style="fill:none;"/>
            <clipPath id="_clip1">
                <rect x="0" y="0" width="70.872" height="70.866"/>
            </clipPath>
            <g clip-path="url(#_clip1)">
                <g transform="matrix(7.02141e-17,-1.14659,1.2748,7.80524e-17,-524.57,352.016)">
                    <path d="M286.794,426.414L301,426.414L301,452L251,452L251,426.414L265.206,426.414" style="fill:none;stroke:var(--outline);stroke-width:7.57px;"/>
                </g>
                <g transform="matrix(2.23106e-16,-1.82165,-1.8218,-2.23088e-16,19.0206,47.9331)">
                    <ellipse cx="6.793" cy="0" rx="6.794" ry="6.794" style="fill:var(--blue);stroke:var(--blue);stroke-width:5.04px;stroke-linejoin:miter;stroke-miterlimit:10;"/>
                </g>
                <g transform="matrix(0.940171,-2.8721e-32,-4.9576e-32,1.33179,63.4702,16.6587)">
                    <path d="M0,10.79L-10.653,21.443C-11.724,22.514 -13.453,22.514 -14.524,21.443L-25.164,10.79C-26.894,9.073 -25.675,6.135 -23.235,6.135L-1.929,6.135C0.51,6.135 1.717,9.073 0,10.79" style="fill:var(--outline);fill-rule:nonzero;"/>
                </g>
            </g>
        </g>
    </g>
</svg>
