<?xml version="1.0" encoding="UTF-8" standalone="no"?>
<!DOCTYPE svg PUBLIC "-//W3C//DTD SVG 1.1//EN" "http://www.w3.org/Graphics/SVG/1.1/DTD/svg11.dtd">
<svg width="100%" height="100%" viewBox="0 0 16 16" version="1.1" xmlns="http://www.w3.org/2000/svg" xmlns:xlink="http://www.w3.org/1999/xlink" xml:space="preserve" xmlns:serif="http://www.serif.com/" style="fill-rule:evenodd;clip-rule:evenodd;stroke-linejoin:round;stroke-miterlimit:2;">
    <g transform="matrix(1,0,0,1,-100,0)">
        <g id="video" transform="matrix(0.225759,0,0,0.225778,100,0)">
            <rect x="0" y="0" width="70.872" height="70.866" style="fill:none;"/>
            <clipPath id="_clip1">
                <rect x="0" y="0" width="70.872" height="70.866"/>
            </clipPath>
            <g clip-path="url(#_clip1)">
                <g id="content" transform="matrix(1.20507,0,0,1.55612,2.65095,5.60992)">
                    <rect x="11.634" y="-0.455" width="31.244" height="39.24" style="fill:none;fill-rule:nonzero;"/>
                    <clipPath id="_clip2">
                        <rect x="11.634" y="-0.455" width="31.244" height="39.24" clip-rule="nonzero"/>
                    </clipPath>
                    <g clip-path="url(#_clip2)">
                        <g transform="matrix(-1.11757,0,0,1.01973,63.3607,-23.24)">
                            <rect x="6.039" y="19.255" width="52.614" height="44.659" style="fill:var(--blue);"/>
                        </g>
                        <g id="Mountains" transform="matrix(1.02928,0,0,0.797016,-494.86,-1.77309)">
                            <path d="M484,41.774L496.338,27.38C497.941,25.509 500.887,25.688 502.253,27.737L510.432,40.01L527.58,20.004C528.661,18.742 530.648,18.862 531.57,20.245L544,38.899L544,65L484,65L484,41.774Z" style="fill:var(--outline);fill-opacity:0.5;"/>
                        </g>
                        <g id="Play" transform="matrix(0.73804,0,0,0.57593,33.4809,18.0249)">
                            <path d="M0,3.959L-14.615,12.78C-16.156,13.71 -18.122,12.6 -18.122,10.8L-18.122,-6.841C-18.122,-8.641 -16.156,-9.751 -14.615,-8.821L0,0C1.49,0.899 1.49,3.06 0,3.959" style="fill:var(--mantle);fill-rule:nonzero;"/>
                        </g>
                    </g>
                </g>
                <g id="reel" transform="matrix(1.1265,0,0,1.1264,4.73219,13.8455)">
                    <path d="M11.634,-7.94L11.634,46.27L3.511,46.27C-0.889,46.27 -4.469,42.7 -4.469,38.29L-4.469,0.929C-4.469,-3.969 -0.498,-7.94 4.4,-7.94L11.634,-7.94ZM0,27.66L7.595,27.66C8.086,27.66 8.484,27.262 8.484,26.771L8.484,21.529C8.484,21.038 8.086,20.64 7.595,20.64L0,20.64C-0.491,20.64 -0.889,21.038 -0.889,21.529L-0.889,26.771C-0.889,27.262 -0.491,27.66 0,27.66ZM0,38.33L7.595,38.33C8.086,38.33 8.484,37.932 8.484,37.441L8.484,32.199C8.484,31.708 8.086,31.31 7.595,31.31L0,31.31C-0.491,31.31 -0.889,31.708 -0.889,32.199L-0.889,37.441C-0.889,37.932 -0.491,38.33 0,38.33ZM0,17.05L7.595,17.05C8.086,17.05 8.484,16.652 8.484,16.161L8.484,10.929C8.484,10.438 8.086,10.04 7.595,10.04L0,10.04C-0.491,10.04 -0.889,10.438 -0.889,10.929L-0.889,16.161C-0.889,16.652 -0.491,17.05 0,17.05ZM0,6.45L7.595,6.45C8.086,6.45 8.484,6.052 8.484,5.561L8.484,0.319C8.484,-0.172 8.086,-0.57 7.595,-0.57L0,-0.57C-0.491,-0.57 -0.889,-0.172 -0.889,0.319L-0.889,5.561C-0.889,6.052 -0.491,6.45 0,6.45ZM42.877,46.27L42.877,-7.94L50.112,-7.94C55.011,-7.94 58.981,-3.969 58.981,0.929L58.981,37.401C58.981,42.299 55.011,46.27 50.112,46.27L42.877,46.27ZM46.917,6.45L54.322,6.45C54.813,6.45 55.211,6.052 55.211,5.561L55.211,0.319C55.211,-0.172 54.813,-0.57 54.322,-0.57L46.917,-0.57C46.426,-0.57 46.028,-0.172 46.028,0.319L46.028,5.561C46.028,6.052 46.426,6.45 46.917,6.45ZM46.917,38.33L54.322,38.33C54.813,38.33 55.211,37.932 55.211,37.441L55.211,32.199C55.211,31.708 54.813,31.31 54.322,31.31L46.917,31.31C46.426,31.31 46.028,31.708 46.028,32.199L46.028,37.441C46.028,37.932 46.426,38.33 46.917,38.33ZM46.917,17.05L54.322,17.05C54.813,17.05 55.211,16.652 55.211,16.161L55.211,10.929C55.211,10.438 54.813,10.04 54.322,10.04L46.917,10.04C46.426,10.04 46.028,10.438 46.028,10.929L46.028,16.161C46.028,16.652 46.426,17.05 46.917,17.05ZM46.917,27.66L54.322,27.66C54.813,27.66 55.211,27.262 55.211,26.771L55.211,21.529C55.211,21.038 54.813,20.64 54.322,20.64L46.917,20.64C46.426,20.64 46.028,21.038 46.028,21.529L46.028,26.771C46.028,27.262 46.426,27.66 46.917,27.66Z" style="fill:var(--outline);"/>
                </g>
            </g>
        </g>
    </g>
</svg>
